# xmcd
#
# Track frame offsets:
#	150
#	18355
#	45455
#	63012
#	78830
#	98062
#	118930
#	151762
#	170322
#	178665
#	196677
#	217260
#
# Disc length: 3006
#
# Revision: 2
# Processed by: cddbd v1.5.1PL0 Copyright (c) Steve Scherf et al.
# Submitted via: CDex 1.30
# Normalized: r1:TRMNUM
#
DISCID=8f0bbc0c
DTITLE=Downtown Blues Band - Choose The Blues
DYEAR=1994
DGENRE=Blues
TTITLE0=Downtown Blues Band - Choose The Blues
TTITLE1=Downtown Blues Band - Blues Of My Life
TTITLE2=Downtown Blues Band - Gamblin' Man
TTITLE3=Downtown Blues Band - Why
TTITLE4=Downtown Blues Band - Lonely Decision
TTITLE5=Downtown Blues Band - Standin' At The Crossroads Again
TTITLE6=Downtown Blues Band - Love Is Nothing But The Blues
TTITLE7=Downtown Blues Band - Let Us Ride
TTITLE8=Downtown Blues Band - Fourhand-Boogie
TTITLE9=Downtown Blues Band - It's Time To Say Goodbye
TTITLE10=Downtown Blues Band - A Night We Always Will Remember
TTITLE11=Downtown Blues Band - Fourhand-Boogie (Soloversion)
EXTD=\nYEAR: 1994  ID3G:   0
EXTT0=
EXTT1=
EXTT2=
EXTT3=
EXTT4=
EXTT5=
EXTT6=
EXTT7=
EXTT8=
EXTT9=
EXTT10=
EXTT11=
PLAYORDER=
